<mxfile host="app.diagrams.net" modified="2022-01-06T16:22:50.601Z" agent="5.0 (Windows NT 10.0; Win64; x64) AppleWebKit/537.36 (KHTML, like Gecko) Chrome/96.0.4664.110 Safari/537.36" etag="4Lfrozf7M66rzleldEd8" version="16.1.2" type="github">
  <diagram id="0D4NJpwZdEH8aAv-v3cR" name="Page-1">
    <mxGraphModel dx="1422" dy="762" grid="1" gridSize="10" guides="1" tooltips="1" connect="1" arrows="1" fold="1" page="1" pageScale="1" pageWidth="827" pageHeight="1169" math="0" shadow="0">
      <root>
        <mxCell id="0" />
        <mxCell id="1" parent="0" />
        <mxCell id="gHVcHHd8M71E_XIBqszA-6" value="STATE_1" style="ellipse;whiteSpace=wrap;html=1;fontSize=17;fillColor=#FFFF00;" vertex="1" parent="1">
          <mxGeometry x="380" y="350" width="120" height="80" as="geometry" />
        </mxCell>
        <mxCell id="gHVcHHd8M71E_XIBqszA-7" value="STATE_2" style="ellipse;whiteSpace=wrap;html=1;fontSize=17;fillColor=#FFFF00;" vertex="1" parent="1">
          <mxGeometry x="120" y="280" width="120" height="80" as="geometry" />
        </mxCell>
        <mxCell id="gHVcHHd8M71E_XIBqszA-9" value="STATE_0" style="ellipse;whiteSpace=wrap;html=1;fontSize=17;fillColor=#FFFF00;" vertex="1" parent="1">
          <mxGeometry x="120" y="100" width="120" height="80" as="geometry" />
        </mxCell>
        <mxCell id="gHVcHHd8M71E_XIBqszA-10" value="STATE_3" style="ellipse;whiteSpace=wrap;html=1;fontSize=17;fillColor=#FFFF00;" vertex="1" parent="1">
          <mxGeometry x="160" y="390" width="120" height="80" as="geometry" />
        </mxCell>
        <mxCell id="gHVcHHd8M71E_XIBqszA-11" value="STATE_4" style="ellipse;whiteSpace=wrap;html=1;fontSize=17;fillColor=#FFFF00;" vertex="1" parent="1">
          <mxGeometry x="630" y="100" width="120" height="80" as="geometry" />
        </mxCell>
        <mxCell id="gHVcHHd8M71E_XIBqszA-12" value="STATE_5" style="ellipse;whiteSpace=wrap;html=1;fontSize=17;fillColor=#FFFF00;" vertex="1" parent="1">
          <mxGeometry x="530" y="490" width="120" height="80" as="geometry" />
        </mxCell>
        <mxCell id="gHVcHHd8M71E_XIBqszA-13" value="STATE_6" style="ellipse;whiteSpace=wrap;html=1;fontSize=17;fillColor=#FFFF00;" vertex="1" parent="1">
          <mxGeometry x="294" y="470" width="120" height="80" as="geometry" />
        </mxCell>
      </root>
    </mxGraphModel>
  </diagram>
</mxfile>
